<svg width="50" height="50" viewBox="0 0 50 50" fill="none" xmlns="http://www.w3.org/2000/svg">
<path d="M43.1577 30.0334C46.1953 30.0334 48.6667 27.5835 48.6667 24.5723V21.9638H45.1754C44.1031 21.9638 43.0661 22.2743 42.1776 22.8484C42.0784 22.3067 41.9541 21.7714 41.8033 21.2449L42.8565 20.6441C44.1309 19.9148 45.0424 18.7371 45.4233 17.328C45.8042 15.9189 45.6087 14.4472 44.873 13.1839L43.5573 10.9249L40.5338 12.6554C39.6051 13.187 38.864 13.9699 38.3851 14.9074C38.0055 14.4652 37.601 14.0411 37.1735 13.636L37.6811 12.7646C38.4168 11.5012 38.6123 10.0295 38.2314 8.62045C37.8505 7.2114 36.939 6.03374 35.6646 5.30433L33.3859 4.00009L31.6403 6.99735C30.9046 8.26066 30.7091 9.73241 31.0899 11.1415C31.4708 12.5505 32.3823 13.7282 33.6567 14.4576L34.6418 15.0214C37.8707 17.7349 39.7209 21.6915 39.7209 25.8958C39.7209 33.7602 33.2669 40.1583 25.3337 40.1583C17.4005 40.1583 10.9465 33.7602 10.9465 25.8958C10.9465 21.6916 12.7968 17.7349 16.0256 15.0214L17.0107 14.4576C18.2851 13.7283 19.1966 12.5505 19.5775 11.1415C19.9583 9.73241 19.7628 8.26066 19.0271 6.99735L17.2815 4L15.0027 5.30433C13.7284 6.03365 12.8169 7.21131 12.436 8.62045C12.0551 10.0295 12.2506 11.5012 12.9863 12.7646L13.4939 13.636C13.0662 14.0411 12.6617 14.4654 12.282 14.9078C11.803 13.97 11.0619 13.187 10.133 12.6554L7.10945 10.9249L5.79371 13.1839C5.05801 14.4472 4.86251 15.9189 5.2434 17.328C5.62428 18.737 6.5358 19.9147 7.81179 20.645L8.86394 21.2452C8.7131 21.7718 8.58878 22.307 8.48962 22.8488C7.60107 22.2744 6.56378 21.9638 5.4913 21.9638H2V24.5723C2 27.5836 4.47133 30.0334 7.51084 30.0334L8.72713 30.0317C8.86303 30.5679 9.0249 31.0939 9.21101 31.6087C8.15057 31.5501 7.09505 31.7943 6.1664 32.3258L3.14274 34.0563L4.45857 36.3153C5.19427 37.5786 6.38222 38.4822 7.80368 38.8598C8.27817 38.9858 8.75949 39.0482 9.23799 39.0482C10.1928 39.0482 11.1356 38.7997 11.9856 38.3133L13.0469 37.7037C13.4329 38.0984 13.838 38.4744 14.2608 38.8306C13.3119 39.3052 12.5195 40.0413 11.9818 40.9643L10.2363 43.9616L12.515 45.2659C13.3639 45.7517 14.3059 45.9999 15.2605 45.9999C15.739 45.9999 16.2208 45.9376 16.6954 45.8114C18.1167 45.4338 19.3047 44.5302 20.0414 43.2653L20.6467 42.2226C22.1368 42.6436 23.7091 42.8691 25.3336 42.8691C26.9579 42.8691 28.53 42.6437 30.0199 42.2228L30.6261 43.267C31.3618 44.5303 32.5498 45.4339 33.9711 45.8115C34.4458 45.9377 34.9274 46 35.406 46C36.3605 46 37.3027 45.7518 38.1515 45.266L40.4302 43.9617L38.6847 40.9644C38.1471 40.0415 37.3549 39.3056 36.4061 38.8309C36.8289 38.4747 37.234 38.0987 37.6201 37.704L38.6827 38.3143C39.5316 38.8002 40.4735 39.0484 41.4282 39.0484C41.9066 39.0484 42.3884 38.986 42.863 38.86C44.2844 38.4824 45.4723 37.5788 46.208 36.3155L47.5238 34.0565L44.5002 32.326C43.5716 31.7945 42.5165 31.5504 41.4562 31.6087C41.6423 31.0941 41.8041 30.5681 41.9401 30.0319L43.1577 30.0334Z" fill="#003896"/>
<path d="M19.969 28.3906L18.7142 35.6936L25.3327 32.2537L31.9512 35.6936L30.6964 28.3906L36.0417 23.2136L28.6477 22.1399L25.3327 15.5003L22.0178 22.1398L14.6237 23.2135L19.969 28.3906Z" fill="#003896"/>
</svg>
