<svg width="50" height="50" viewBox="0 0 50 50" fill="none" xmlns="http://www.w3.org/2000/svg">
<path d="M32 8.34073L13.3951 18L6 14.3102L24.2769 5.1585C24.6869 4.94717 25.1788 4.94717 25.6093 5.1585L32 8.34073Z" fill="#003896"/>
<path d="M43 13.9943L24.8007 23L17.9853 19.6454L17 19.1451L34.9054 10L35.8907 10.4987L43 13.9943Z" fill="#003896"/>
<path d="M24 26.0195L23.9795 45L5.8408 35.9C5.32812 35.6404 5 35.1196 5 34.5594V17L12.6868 20.6407V27.0414C12.6868 27.8612 13.3841 28.5414 14.2249 28.5414C15.0657 28.5414 15.7629 27.8612 15.7629 27.0414V22.1209L16.7883 22.6007L24 26.0195Z" fill="#003896"/>
<path d="M44.9805 17L27.0195 25.9928L27 45L45 35.4692L44.9805 17Z" fill="#003896"/>
</svg>
