<svg width="50" height="50" viewBox="0 0 50 50" fill="none" xmlns="http://www.w3.org/2000/svg">
<path d="M20.9929 18.6906C21.5493 17.3459 22.8097 15.0902 25 15.09C24.9999 15.09 24.9996 15.09 24.9994 15.09C19.5351 15.09 15.0112 19.2163 14.3462 24.5335H19.7837C19.9065 22.344 20.3245 20.306 20.9929 18.6906Z" fill="#003896"/>
<path d="M29.0076 18.6905C29.6761 20.306 30.0942 22.344 30.2169 24.5335H35.6525C34.9876 19.2169 30.4645 15.0908 25.0009 15.0901C27.1909 15.0905 28.4513 17.3459 29.0076 18.6905Z" fill="#003896"/>
<path d="M29.0076 33.087C28.4513 34.4316 27.1909 36.6872 25.0009 36.6875C30.4645 36.6868 34.9877 32.5607 35.6525 27.2441H30.2169C30.0942 29.4335 29.6761 31.4715 29.0076 33.087Z" fill="#003896"/>
<path d="M20.9929 33.087C20.3245 31.4716 19.9065 29.4336 19.7837 27.2441H14.3462C15.0111 32.5612 19.5351 36.6876 24.9994 36.6876H25C22.8098 36.6873 21.5493 34.4317 20.9929 33.087Z" fill="#003896"/>
<path d="M22.481 27.2441C22.7504 31.6897 24.3023 33.977 25.0002 33.977C25.6981 33.977 27.2501 31.6898 27.5195 27.2441H22.481Z" fill="#003896"/>
<path d="M25.0003 17.8006C24.3024 17.8006 22.7505 20.0878 22.4811 24.5335H27.5196C27.2502 20.0878 25.6982 17.8006 25.0003 17.8006Z" fill="#003896"/>
<path d="M42.5698 30.0336C45.564 30.0336 48 27.5836 48 24.5723V21.9638H44.5586C43.5016 21.9638 42.4794 22.2743 41.6036 22.8485C41.5059 22.3068 41.3833 21.7716 41.2347 21.245L42.2729 20.6441C43.529 19.9148 44.4275 18.7371 44.8029 17.328C45.1784 15.919 44.9857 14.4472 44.2605 13.184L42.9636 10.9248L39.9833 12.6554C39.0678 13.187 38.3373 13.9699 37.8652 14.9074C37.491 14.4652 37.0923 14.0411 36.6709 13.636L37.1713 12.7645C37.8965 11.5012 38.0892 10.0294 37.7137 8.62047C37.3383 7.2115 36.4398 6.03375 35.1836 5.30443L32.9374 4L31.2167 6.99746C29.7196 9.60522 30.6113 12.9519 33.2044 14.4576L34.1754 15.0214C37.3581 17.7349 39.182 21.6916 39.182 25.8959C39.182 33.7603 32.8201 40.1585 25.0002 40.1585C17.1804 40.1585 10.8186 33.7603 10.8186 25.8959C10.8186 21.6915 12.6425 17.7348 15.8254 15.0212L16.7962 14.4576C19.3892 12.9519 20.2808 9.60531 18.7837 6.99746L17.0631 4L14.8169 5.30443C13.5608 6.03375 12.6623 7.21141 12.2868 8.62047C11.9114 10.0295 12.1041 11.5012 12.8293 12.7645L13.3296 13.636C12.9081 14.0412 12.5093 14.4655 12.135 14.9079C11.6629 13.9702 10.9324 13.1871 10.0167 12.6554L7.03645 10.9247L5.73952 13.1839C5.01433 14.4471 4.82162 15.919 5.19706 17.328C5.5725 18.7369 6.471 19.9147 7.72876 20.645L8.76588 21.2453C8.6172 21.7719 8.49465 22.307 8.39691 22.8489C7.52105 22.2745 6.49858 21.9638 5.44143 21.9638H2V24.5723C2 27.5836 4.43602 30.0336 7.43211 30.0336L8.63112 30.0318C8.76507 30.568 8.92463 31.094 9.10808 31.6088C8.0627 31.5502 7.02226 31.7943 6.10688 32.3258L3.12642 34.0563L4.42345 36.3153C5.14864 37.5787 6.31962 38.4823 7.72068 38.8599C8.18848 38.986 8.66293 39.0483 9.13468 39.0483C10.0758 39.0483 11.0051 38.7999 11.843 38.3133L12.8893 37.7038C13.2698 38.0985 13.6691 38.4745 14.0858 38.8307C13.1505 39.3054 12.3694 40.0414 11.8394 40.9644L10.1188 43.9616L12.365 45.266C13.2018 45.7519 14.1303 46 15.0712 46C15.5429 46 16.0178 45.9377 16.4856 45.8115C17.8867 45.4339 19.0576 44.5303 19.7838 43.2654L20.3805 42.2226C21.8493 42.6436 23.3992 42.8691 25.0004 42.8691C26.6015 42.8691 28.1512 42.6437 29.6199 42.2228L30.2174 43.267C30.9426 44.5303 32.1136 45.4339 33.5147 45.8115C33.9826 45.9377 34.4573 46 34.929 46C35.8699 46 36.7987 45.7518 37.6353 45.266L39.8815 43.9616L38.1609 40.9644C37.631 40.0415 36.85 39.3055 35.9148 38.8309C36.3316 38.4746 36.731 38.0986 37.1115 37.704L38.159 38.3144C38.9957 38.8003 39.9242 39.0484 40.8652 39.0484C41.3369 39.0484 41.8118 38.9861 42.2796 38.86C43.6807 38.4824 44.8516 37.5787 45.5768 36.3154L46.8739 34.0564L43.8934 32.3259C42.9781 31.7945 41.938 31.5503 40.8929 31.6087C41.0764 31.094 41.2358 30.5681 41.3698 30.0319L42.5698 30.0336Z" fill="#003896"/>
</svg>
