<svg width="226" height="28" viewBox="0 0 226 28" fill="none" xmlns="http://www.w3.org/2000/svg">
<path d="M1.5 3.52H11.28V17H9.52V4.98H3.26V17H1.5V3.52ZM18.3334 7.12C19.7201 7.12 20.8401 7.58 21.6934 8.5C22.5601 9.42 22.9934 10.6133 22.9934 12.08C22.9934 13.7467 22.5134 15.02 21.5534 15.9C20.5934 16.78 19.4668 17.22 18.1734 17.22C16.8401 17.22 15.7334 16.7667 14.8534 15.86C13.9734 14.94 13.5334 13.7333 13.5334 12.24C13.5334 10.68 13.9868 9.44 14.8934 8.52C15.8134 7.58667 16.9601 7.12 18.3334 7.12ZM20.4534 9.58C19.9734 8.82 19.2534 8.44 18.2934 8.44C17.3334 8.44 16.6001 8.81333 16.0934 9.56C15.5868 10.2933 15.3334 11.1667 15.3334 12.18C15.3334 13.2467 15.6068 14.1333 16.1534 14.84C16.7001 15.5467 17.4001 15.9 18.2534 15.9C19.0934 15.9 19.7934 15.5467 20.3534 14.84C20.9134 14.12 21.1934 13.22 21.1934 12.14C21.1934 11.1933 20.9468 10.34 20.4534 9.58ZM26.1133 7.32H32.5733V15.68L33.5733 15.7L33.4733 20.06H32.0933L32.0133 17H25.3133L25.2133 20.06H23.8533L23.7733 15.72L24.5933 15.68C25.0066 15.0667 25.3266 14.4067 25.5533 13.7C25.9266 12.5267 26.1133 11.24 26.1133 9.84V7.32ZM27.6533 8.66V10.24C27.6533 11.6 27.4866 12.8067 27.1533 13.86C26.9666 14.5 26.7133 15.1 26.3933 15.66H30.8533V8.66H27.6533ZM35.6788 20.96V10.48C35.6788 9.6 35.6521 8.54667 35.5988 7.32H37.1587L37.2588 8.98H37.2988C38.0321 7.74 39.1788 7.12 40.7388 7.12C41.9254 7.12 42.9054 7.57333 43.6788 8.48C44.4654 9.38667 44.8588 10.5667 44.8588 12.02C44.8588 13.6733 44.4254 14.9533 43.5588 15.86C42.7054 16.7667 41.6654 17.22 40.4388 17.22C39.7988 17.22 39.2121 17.0867 38.6788 16.82C38.1588 16.5533 37.7521 16.18 37.4588 15.7H37.4188V20.96H35.6788ZM37.4188 11.38V13.06C37.4188 13.34 37.4454 13.58 37.4988 13.78C37.6588 14.3933 37.9788 14.8933 38.4588 15.28C38.9521 15.6533 39.5121 15.84 40.1388 15.84C41.0588 15.84 41.7788 15.5 42.2988 14.82C42.8188 14.14 43.0788 13.2333 43.0788 12.1C43.0788 11.0867 42.8188 10.24 42.2988 9.56C41.7921 8.86667 41.0921 8.52 40.1988 8.52C39.5854 8.52 39.0254 8.72 38.5188 9.12C38.0254 9.50667 37.6988 10.0267 37.5388 10.68C37.4588 10.9733 37.4188 11.2067 37.4188 11.38ZM51.1655 7.12C52.5521 7.12 53.6721 7.58 54.5255 8.5C55.3921 9.42 55.8255 10.6133 55.8255 12.08C55.8255 13.7467 55.3455 15.02 54.3855 15.9C53.4255 16.78 52.2988 17.22 51.0055 17.22C49.6721 17.22 48.5655 16.7667 47.6855 15.86C46.8055 14.94 46.3655 13.7333 46.3655 12.24C46.3655 10.68 46.8188 9.44 47.7255 8.52C48.6455 7.58667 49.7921 7.12 51.1655 7.12ZM53.2855 9.58C52.8055 8.82 52.0855 8.44 51.1255 8.44C50.1655 8.44 49.4321 8.81333 48.9255 9.56C48.4188 10.2933 48.1655 11.1667 48.1655 12.18C48.1655 13.2467 48.4388 14.1333 48.9855 14.84C49.5321 15.5467 50.2321 15.9 51.0855 15.9C51.9255 15.9 52.6255 15.5467 53.1855 14.84C53.7455 14.12 54.0255 13.22 54.0255 12.14C54.0255 11.1933 53.7788 10.34 53.2855 9.58ZM65.442 2.58L65.362 4.04C64.9887 4.18667 64.3154 4.33333 63.342 4.48C61.702 4.73333 60.5487 5.34 59.882 6.3C59.3087 7.1 58.9554 8.16667 58.822 9.5H58.882C59.1887 8.80667 59.6487 8.27333 60.262 7.9C60.8887 7.51333 61.5554 7.32 62.262 7.32C63.4887 7.32 64.482 7.74 65.242 8.58C66.002 9.42 66.382 10.5933 66.382 12.1C66.382 13.6867 65.9887 14.94 65.202 15.86C64.4154 16.78 63.3154 17.24 61.902 17.24C61.0887 17.24 60.3754 17.06 59.762 16.7C59.162 16.3267 58.6954 15.8267 58.362 15.2C58.0287 14.56 57.782 13.8733 57.622 13.14C57.462 12.3933 57.382 11.5933 57.382 10.74C57.382 8.46 57.882 6.67333 58.882 5.38C59.322 4.72667 59.8754 4.22667 60.542 3.88C61.2087 3.53333 62.042 3.27333 63.042 3.1C64.2154 2.9 65.0154 2.72667 65.442 2.58ZM64.602 12.22C64.602 11.6333 64.5287 11.0867 64.382 10.58C64.2354 10.0733 63.9487 9.62 63.522 9.22C63.0954 8.82 62.5554 8.62 61.902 8.62C60.9154 8.62 60.182 9.06 59.702 9.94C59.382 10.5133 59.222 11.2 59.222 12C59.222 12.5867 59.3087 13.1667 59.482 13.74C59.6554 14.3 59.9554 14.8067 60.382 15.26C60.822 15.7 61.342 15.92 61.942 15.92C62.8487 15.92 63.5154 15.56 63.942 14.84C64.382 14.12 64.602 13.2467 64.602 12.22ZM68.5484 7.32H70.3084V11.22H74.8884V7.32H76.6484V17H74.8884V12.62H70.3084V17H68.5484V7.32ZM87.3064 12.48H80.5064C80.5197 13.6133 80.8331 14.46 81.4464 15.02C82.0731 15.5667 82.8664 15.84 83.8264 15.84C84.8531 15.84 85.7464 15.6733 86.5064 15.34L86.8264 16.6C85.9064 17.0133 84.8264 17.22 83.5864 17.22C82.1197 17.22 80.9597 16.7733 80.1064 15.88C79.2531 14.9867 78.8264 13.8 78.8264 12.32C78.8264 10.8267 79.2397 9.58667 80.0664 8.6C80.8931 7.61333 81.9931 7.12 83.3664 7.12C84.1131 7.12 84.7597 7.27333 85.3064 7.58C85.8664 7.87333 86.2864 8.26 86.5664 8.74C86.8464 9.22 87.0464 9.70667 87.1664 10.2C87.2997 10.68 87.3664 11.1667 87.3664 11.66C87.3664 12.0067 87.3464 12.28 87.3064 12.48ZM80.5264 11.22H85.6664C85.6797 10.5133 85.4931 9.86667 85.1064 9.28C84.7331 8.68 84.1064 8.38 83.2264 8.38C82.4131 8.38 81.7797 8.67333 81.3264 9.26C80.8731 9.83333 80.6064 10.4867 80.5264 11.22ZM97.3259 12.48H90.5259C90.5393 13.6133 90.8526 14.46 91.4659 15.02C92.0926 15.5667 92.8859 15.84 93.8459 15.84C94.8726 15.84 95.7659 15.6733 96.5259 15.34L96.8459 16.6C95.9259 17.0133 94.8459 17.22 93.6059 17.22C92.1393 17.22 90.9793 16.7733 90.1259 15.88C89.2726 14.9867 88.8459 13.8 88.8459 12.32C88.8459 10.8267 89.2593 9.58667 90.0859 8.6C90.9126 7.61333 92.0126 7.12 93.3859 7.12C94.1326 7.12 94.7793 7.27333 95.3259 7.58C95.8859 7.87333 96.3059 8.26 96.5859 8.74C96.8659 9.22 97.0659 9.70667 97.1859 10.2C97.3193 10.68 97.3859 11.1667 97.3859 11.66C97.3859 12.0067 97.3659 12.28 97.3259 12.48ZM90.5459 11.22H95.6859C95.6993 10.5133 95.5126 9.86667 95.1259 9.28C94.7526 8.68 94.1259 8.38 93.2459 8.38C92.4326 8.38 91.7993 8.67333 91.3459 9.26C90.8926 9.83333 90.6259 10.4867 90.5459 11.22ZM107.904 7.12C109.29 7.12 110.41 7.58 111.264 8.5C112.13 9.42 112.564 10.6133 112.564 12.08C112.564 13.7467 112.084 15.02 111.124 15.9C110.164 16.78 109.037 17.22 107.744 17.22C106.41 17.22 105.304 16.7667 104.424 15.86C103.544 14.94 103.104 13.7333 103.104 12.24C103.104 10.68 103.557 9.44 104.464 8.52C105.384 7.58667 106.53 7.12 107.904 7.12ZM110.024 9.58C109.544 8.82 108.824 8.44 107.864 8.44C106.904 8.44 106.17 8.81333 105.664 9.56C105.157 10.2933 104.904 11.1667 104.904 12.18C104.904 13.2467 105.177 14.1333 105.724 14.84C106.27 15.5467 106.97 15.9 107.824 15.9C108.664 15.9 109.364 15.5467 109.924 14.84C110.484 14.12 110.764 13.22 110.764 12.14C110.764 11.1933 110.517 10.34 110.024 9.58ZM126.419 2.58L126.339 4.04C125.965 4.18667 125.292 4.33333 124.319 4.48C122.679 4.73333 121.525 5.34 120.859 6.3C120.285 7.1 119.932 8.16667 119.799 9.5H119.859C120.165 8.80667 120.625 8.27333 121.239 7.9C121.865 7.51333 122.532 7.32 123.239 7.32C124.465 7.32 125.459 7.74 126.219 8.58C126.979 9.42 127.359 10.5933 127.359 12.1C127.359 13.6867 126.965 14.94 126.179 15.86C125.392 16.78 124.292 17.24 122.879 17.24C122.065 17.24 121.352 17.06 120.739 16.7C120.139 16.3267 119.672 15.8267 119.339 15.2C119.005 14.56 118.759 13.8733 118.599 13.14C118.439 12.3933 118.359 11.5933 118.359 10.74C118.359 8.46 118.859 6.67333 119.859 5.38C120.299 4.72667 120.852 4.22667 121.519 3.88C122.185 3.53333 123.019 3.27333 124.019 3.1C125.192 2.9 125.992 2.72667 126.419 2.58ZM125.579 12.22C125.579 11.6333 125.505 11.0867 125.359 10.58C125.212 10.0733 124.925 9.62 124.499 9.22C124.072 8.82 123.532 8.62 122.879 8.62C121.892 8.62 121.159 9.06 120.679 9.94C120.359 10.5133 120.199 11.2 120.199 12C120.199 12.5867 120.285 13.1667 120.459 13.74C120.632 14.3 120.932 14.8067 121.359 15.26C121.799 15.7 122.319 15.92 122.919 15.92C123.825 15.92 124.492 15.56 124.919 14.84C125.359 14.12 125.579 13.2467 125.579 12.22ZM129.585 20.96V10.48C129.585 9.6 129.558 8.54667 129.505 7.32H131.065L131.165 8.98H131.205C131.938 7.74 133.085 7.12 134.645 7.12C135.832 7.12 136.812 7.57333 137.585 8.48C138.372 9.38667 138.765 10.5667 138.765 12.02C138.765 13.6733 138.332 14.9533 137.465 15.86C136.612 16.7667 135.572 17.22 134.345 17.22C133.705 17.22 133.118 17.0867 132.585 16.82C132.065 16.5533 131.658 16.18 131.365 15.7H131.325V20.96H129.585ZM131.325 11.38V13.06C131.325 13.34 131.352 13.58 131.405 13.78C131.565 14.3933 131.885 14.8933 132.365 15.28C132.858 15.6533 133.418 15.84 134.045 15.84C134.965 15.84 135.685 15.5 136.205 14.82C136.725 14.14 136.985 13.2333 136.985 12.1C136.985 11.0867 136.725 10.24 136.205 9.56C135.698 8.86667 134.998 8.52 134.105 8.52C133.492 8.52 132.932 8.72 132.425 9.12C131.932 9.50667 131.605 10.0267 131.445 10.68C131.365 10.9733 131.325 11.2067 131.325 11.38ZM148.752 12.48H141.952C141.965 13.6133 142.278 14.46 142.892 15.02C143.518 15.5667 144.312 15.84 145.272 15.84C146.298 15.84 147.192 15.6733 147.952 15.34L148.272 16.6C147.352 17.0133 146.272 17.22 145.032 17.22C143.565 17.22 142.405 16.7733 141.552 15.88C140.698 14.9867 140.272 13.8 140.272 12.32C140.272 10.8267 140.685 9.58667 141.512 8.6C142.338 7.61333 143.438 7.12 144.812 7.12C145.558 7.12 146.205 7.27333 146.752 7.58C147.312 7.87333 147.732 8.26 148.012 8.74C148.292 9.22 148.492 9.70667 148.612 10.2C148.745 10.68 148.812 11.1667 148.812 11.66C148.812 12.0067 148.792 12.28 148.752 12.48ZM141.972 11.22H147.112C147.125 10.5133 146.938 9.86667 146.552 9.28C146.178 8.68 145.552 8.38 144.672 8.38C143.858 8.38 143.225 8.67333 142.772 9.26C142.318 9.83333 142.052 10.4867 141.972 11.22ZM150.931 7.32H152.691V11.22H157.271V7.32H159.031V17H157.271V12.62H152.691V17H150.931V7.32ZM162.949 7.32H169.409V15.68L170.409 15.7L170.309 20.06H168.929L168.849 17H162.149L162.049 20.06H160.689L160.609 15.72L161.429 15.68C161.843 15.0667 162.163 14.4067 162.389 13.7C162.763 12.5267 162.949 11.24 162.949 9.84V7.32ZM164.489 8.66V10.24C164.489 11.6 164.323 12.8067 163.989 13.86C163.803 14.5 163.549 15.1 163.229 15.66H167.689V8.66H164.489ZM180.217 12.48H173.417C173.43 13.6133 173.743 14.46 174.357 15.02C174.983 15.5667 175.777 15.84 176.737 15.84C177.763 15.84 178.657 15.6733 179.417 15.34L179.737 16.6C178.817 17.0133 177.737 17.22 176.497 17.22C175.03 17.22 173.87 16.7733 173.017 15.88C172.163 14.9867 171.737 13.8 171.737 12.32C171.737 10.8267 172.15 9.58667 172.977 8.6C173.803 7.61333 174.903 7.12 176.277 7.12C177.023 7.12 177.67 7.27333 178.217 7.58C178.777 7.87333 179.197 8.26 179.477 8.74C179.757 9.22 179.957 9.70667 180.077 10.2C180.21 10.68 180.277 11.1667 180.277 11.66C180.277 12.0067 180.257 12.28 180.217 12.48ZM173.437 11.22H178.577C178.59 10.5133 178.403 9.86667 178.017 9.28C177.643 8.68 177.017 8.38 176.137 8.38C175.323 8.38 174.69 8.67333 174.237 9.26C173.783 9.83333 173.517 10.4867 173.437 11.22Z" fill="#003896"/>
<g filter="url(#filter0_d_913_8)">
<path d="M221.707 12.7071C222.098 12.3166 222.098 11.6834 221.707 11.2929L215.343 4.92893C214.953 4.53841 214.319 4.53841 213.929 4.92893C213.538 5.31946 213.538 5.95262 213.929 6.34315L219.586 12L213.929 17.6569C213.538 18.0474 213.538 18.6805 213.929 19.0711C214.319 19.4616 214.953 19.4616 215.343 19.0711L221.707 12.7071ZM201 13H221V11H201V13Z" fill="#003896"/>
</g>
<defs>
<filter id="filter0_d_913_8" x="197" y="4.63605" width="29" height="22.7279" filterUnits="userSpaceOnUse" color-interpolation-filters="sRGB">
<feFlood flood-opacity="0" result="BackgroundImageFix"/>
<feColorMatrix in="SourceAlpha" type="matrix" values="0 0 0 0 0 0 0 0 0 0 0 0 0 0 0 0 0 0 127 0" result="hardAlpha"/>
<feOffset dy="4"/>
<feGaussianBlur stdDeviation="2"/>
<feComposite in2="hardAlpha" operator="out"/>
<feColorMatrix type="matrix" values="0 0 0 0 0 0 0 0 0 0 0 0 0 0 0 0 0 0 0.25 0"/>
<feBlend mode="normal" in2="BackgroundImageFix" result="effect1_dropShadow_913_8"/>
<feBlend mode="normal" in="SourceGraphic" in2="effect1_dropShadow_913_8" result="shape"/>
</filter>
</defs>
</svg>
