<svg width="184" height="31" viewBox="0 0 184 31" fill="none" xmlns="http://www.w3.org/2000/svg">
<path d="M76.7846 12.2835L75.1165 12.3189V5.64638H77.0273C78.478 5.64638 78.9532 6.70792 78.9532 9.03319C78.9532 11.3585 78.4174 12.2835 76.7846 12.2835ZM85.2061 27.4989V20.3462C85.2061 16.9543 83.993 14.9829 81.4099 14.5178C84.4125 13.7191 85.2365 11.2018 85.2365 7.97165C85.2365 3.4222 83.5987 0.58638 78.291 0.58638H68.7827V30.0668H75.1165V17.2475H76.6785C78.1949 17.2475 78.9229 18.2989 78.9229 19.7042V27.5444C78.8763 28.4093 79.0266 29.2735 79.3626 30.0719H85.7672C85.3493 29.2832 85.1552 28.3951 85.2061 27.504" fill="white"/>
<path d="M14.1943 25.0523C14.6482 24.6658 15.005 24.1781 15.2359 23.6285C15.4669 23.0788 15.5654 22.4826 15.5237 21.8879V17.48H9.36682V23.46C9.36748 23.6636 9.32796 23.8652 9.25053 24.0535C9.17309 24.2417 9.05926 24.4129 8.91556 24.557C8.77186 24.7012 8.60111 24.8156 8.41311 24.8936C8.22511 24.9717 8.02356 25.0119 7.82 25.0119C7.61784 25.0119 7.41771 24.9716 7.23138 24.8931C7.04504 24.8147 6.87627 24.6999 6.73498 24.5553C6.59369 24.4107 6.48273 24.2393 6.40864 24.0512C6.33454 23.8631 6.2988 23.6621 6.30352 23.46V6.52088C6.29948 6.31919 6.33573 6.11873 6.41013 5.93123C6.48453 5.74372 6.5956 5.57295 6.73682 5.4289C6.87804 5.28486 7.04658 5.17043 7.23258 5.09233C7.41857 5.01423 7.61828 4.97403 7.82 4.97407C8.23024 4.97407 8.62368 5.13703 8.91377 5.42712C9.20385 5.7172 9.36682 6.11064 9.36682 6.52088V12.5413H15.5136V6.29341C15.5136 2.84593 13.2591 0 7.76945 0C2.13319 0 7.08504e-07 2.85099 7.08504e-07 6.30352V23.9958C-0.000389961 24.7998 0.160785 25.5956 0.473952 26.336C0.78712 27.0765 1.24589 27.7465 1.82303 28.3061C2.40016 28.8658 3.08388 29.3038 3.83359 29.5941C4.5833 29.8844 5.3837 30.0211 6.18725 29.996H8.08792L14.1943 25.0523Z" fill="white"/>
<path d="M174.866 12.2684H173.187V5.63121H175.108C176.554 5.63121 177.034 6.69275 177.034 9.01297C177.034 11.3332 176.504 12.2684 174.866 12.2684ZM183.282 27.4837V20.331C183.282 16.9391 182.079 14.9677 179.491 14.5026C182.499 13.704 183.318 11.1866 183.318 7.95649C183.318 3.40704 181.68 0.571213 176.372 0.571213H166.864V30.0516H173.208V17.2323H174.76C176.276 17.2323 176.999 18.2837 176.999 19.689V27.5343C176.951 28.4003 177.105 29.2656 177.449 30.0618H183.843C183.426 29.2728 183.232 28.3849 183.282 27.4938" fill="white"/>
<path d="M153.67 19.4413L155.318 5.68681L156.966 19.4413H153.67ZM159.569 0.505493H151.057L146.002 30.0365H152.407L153.038 24.8299H157.613L158.22 30.0466H164.634L159.569 0.505493Z" fill="white"/>
<path d="M117.123 30.0466V0.576263H123.619V24.4508H130.382V30.0466H117.123Z" fill="white"/>
<path d="M113.681 0.581314H107.195V30.0516H113.681V0.581314Z" fill="white"/>
<path d="M117.123 30.0466V0.576263H123.619V24.4508H130.382V30.0466H117.123Z" fill="white"/>
<path d="M131.944 30.0466V0.576263H138.43V24.4508H145.203V30.0466H131.944Z" fill="white"/>
<path d="M96.5747 13.1429H94.6387V5.64131H96.5494C98.1923 5.64131 98.4703 6.76857 98.4703 9.46791C98.4703 12.2582 98.1923 13.1429 96.5596 13.1429H96.5747ZM98.1923 0.581314H88.3149V30.0618H94.6589V18.3596H98.1974C104.026 18.3596 105.011 14.6442 105.011 9.46791C105.011 4.29164 104.036 0.581314 98.2075 0.581314" fill="white"/>
<path d="M57.8185 6.19736V12.0358H64.5365V17.8086H57.8185V24.3497H65.8002V30.0365L51.3229 30.0466V0.571213H51.3178H65.5424V6.19736H57.8185Z" fill="white"/>
<path d="M38.458 25.7499V6.30857H34.2068V0.581314H49.5789V6.30857H45.3125V29.9606H43.4927L38.458 25.7499Z" fill="white"/>
<path d="M41.213 30.0062L26.2402 17.4598L10.7316 30.0062H41.213Z" fill="#FFC400"/>
<path d="M24.5873 14.0831L26.2453 5.61099L27.8932 14.0831H24.5873ZM30.5117 0.611649H21.9182L16.9442 23.0253L26.2453 15.5187L35.9457 23.647L30.5117 0.611649Z" fill="white"/>
</svg>
