<svg width="272" height="46" viewBox="0 0 272 46" fill="none" xmlns="http://www.w3.org/2000/svg">
<path d="M10.3176 3.2246C11.3516 1.24272 13.4017 0 15.6371 0H266C269.314 0 272 2.68629 272 6V40C272 43.3137 269.314 46 266 46H15.6371C13.4017 46 11.3516 44.7573 10.3176 42.7754L0.482677 23.9251C0.180237 23.3455 0.180237 22.6545 0.482678 22.0749L10.3176 3.2246Z" fill="#003896"/>
<path d="M29.5914 16.024C31.0634 16.024 32.2421 16.5307 33.1274 17.544C34.0128 18.5573 34.4554 19.8747 34.4554 21.496C34.4554 23.2773 33.9808 24.6693 33.0314 25.672C32.0821 26.6747 30.8874 27.176 29.4474 27.176C28.0181 27.176 26.8501 26.6693 25.9434 25.656C25.0474 24.6427 24.5994 23.32 24.5994 21.688C24.5994 19.992 25.0634 18.6267 25.9914 17.592C26.9301 16.5467 28.1301 16.024 29.5914 16.024ZM29.5434 17.16C28.4448 17.16 27.5914 17.5973 26.9834 18.472C26.3754 19.336 26.0714 20.3973 26.0714 21.656C26.0714 22.872 26.3808 23.9067 26.9994 24.76C27.6288 25.6133 28.4714 26.04 29.5274 26.04C30.5941 26.04 31.4368 25.6133 32.0554 24.76C32.6741 23.9067 32.9834 22.84 32.9834 21.56C32.9834 20.376 32.6794 19.3467 32.0714 18.472C31.4741 17.5973 30.6314 17.16 29.5434 17.16ZM39.5347 15.672H40.8467L40.8307 19.112C41.9934 19.1973 42.932 19.592 43.6467 20.296C44.3614 21 44.7187 21.9387 44.7187 23.112C44.7187 24.3387 44.356 25.2987 43.6307 25.992C42.9054 26.6853 41.972 27.0693 40.8307 27.144L40.8467 30.168H39.5347L39.5507 27.16C38.3987 27.0853 37.46 26.7013 36.7347 26.008C36.02 25.304 35.6627 24.3653 35.6627 23.192C35.6627 21.976 36.0254 21.0213 36.7507 20.328C37.476 19.624 38.4094 19.224 39.5507 19.128L39.5347 15.672ZM39.5507 26.184V20.088C38.7827 20.184 38.1747 20.52 37.7267 21.096C37.2787 21.6613 37.0547 22.3493 37.0547 23.16C37.0547 23.96 37.2787 24.6427 37.7267 25.208C38.1854 25.7627 38.7934 26.088 39.5507 26.184ZM40.8307 20.088V26.2C41.5987 26.0933 42.2067 25.7573 42.6547 25.192C43.1027 24.616 43.3267 23.9227 43.3267 23.112C43.3267 22.3013 43.1027 21.624 42.6547 21.08C42.2067 20.5253 41.5987 20.1947 40.8307 20.088ZM46.4247 19.256H47.7687V22.52C47.7687 23.48 47.7367 24.5147 47.6727 25.624L47.7207 25.64C48.3074 24.4773 48.7287 23.6827 48.9847 23.256L51.4007 19.256H53.0487V27H51.7047V23.72C51.7047 22.856 51.7367 21.7947 51.8007 20.536H51.7687C51.2247 21.6027 50.7927 22.408 50.4727 22.952C50.1954 23.4107 49.7634 24.1307 49.1767 25.112C48.6007 26.0827 48.2274 26.712 48.0567 27H46.4247V19.256ZM55.2841 19.256H56.6921V25.896H60.2601V19.256H61.6521V25.944L62.4521 25.96L62.3721 29.448H61.2681L61.2041 27H55.2841V19.256ZM64.0809 19.256H65.4249V22.52C65.4249 23.48 65.3929 24.5147 65.3289 25.624L65.3769 25.64C65.9636 24.4773 66.3849 23.6827 66.6409 23.256L69.0569 19.256H70.7049V27H69.3609V23.72C69.3609 22.856 69.3929 21.7947 69.4569 20.536H69.4249C68.8809 21.6027 68.4489 22.408 68.1289 22.952C67.8516 23.4107 67.4196 24.1307 66.8329 25.112C66.2569 26.0827 65.8836 26.712 65.7129 27H64.0809V19.256ZM78.4283 22.248V25.144C78.4283 25.8907 78.4656 26.5093 78.5403 27H77.2763L77.1643 26.024H77.1163C76.8816 26.3547 76.5563 26.632 76.1403 26.856C75.735 27.0693 75.271 27.176 74.7483 27.176C74.0016 27.176 73.4203 26.9573 73.0043 26.52C72.5883 26.0827 72.3803 25.56 72.3803 24.952C72.3803 24.0133 72.7803 23.2987 73.5803 22.808C74.391 22.3067 75.543 22.0613 77.0363 22.072V21.912C77.0363 21.72 77.015 21.5387 76.9723 21.368C76.9403 21.1867 76.8656 20.9947 76.7483 20.792C76.6416 20.5893 76.4603 20.4293 76.2043 20.312C75.959 20.1947 75.6496 20.136 75.2763 20.136C74.487 20.136 73.8096 20.328 73.2443 20.712L72.9243 19.768C73.639 19.32 74.4923 19.096 75.4843 19.096C76.5616 19.096 77.319 19.3947 77.7563 19.992C78.2043 20.5893 78.4283 21.3413 78.4283 22.248ZM77.0683 24.392V23.048C74.8816 23.0053 73.7883 23.5867 73.7883 24.792C73.7883 25.2293 73.911 25.5653 74.1563 25.8C74.4123 26.024 74.727 26.136 75.1003 26.136C75.5803 26.136 75.9856 26.0133 76.3163 25.768C76.647 25.512 76.8763 25.2027 77.0043 24.84C77.047 24.7013 77.0683 24.552 77.0683 24.392ZM81.2328 19.256H86.6248V27H85.2168V20.36H82.5608V22.344C82.5608 23.5387 82.4755 24.4773 82.3048 25.16C82.1341 25.832 81.8141 26.3227 81.3448 26.632C80.9395 26.952 80.4275 27.112 79.8088 27.112L79.6648 26.008C79.9848 25.9547 80.2408 25.848 80.4328 25.688C80.7635 25.4427 80.9768 25.0693 81.0728 24.568C81.1795 24.0667 81.2328 23.3253 81.2328 22.344V19.256ZM88.8622 19.256H90.2702V21.864C90.6435 21.8107 91.0702 21.784 91.5502 21.784C92.0195 21.784 92.4515 21.8267 92.8462 21.912C93.2515 21.9973 93.6302 22.136 93.9822 22.328C94.3449 22.5093 94.6275 22.7813 94.8302 23.144C95.0329 23.496 95.1342 23.9173 95.1342 24.408C95.1342 25.1333 94.8622 25.7253 94.3182 26.184C93.6142 26.7813 92.4889 27.08 90.9422 27.08C90.2489 27.08 89.5555 27.0427 88.8622 26.968V19.256ZM90.2542 22.888V26.008C90.5102 26.0507 90.8622 26.072 91.3102 26.072C91.9502 26.072 92.5102 25.944 92.9902 25.688C93.4809 25.432 93.7262 25.016 93.7262 24.44C93.7262 24.024 93.5875 23.688 93.3102 23.432C93.0329 23.1653 92.7235 22.9947 92.3822 22.92C92.0409 22.8347 91.6675 22.792 91.2622 22.792C90.9209 22.792 90.5849 22.824 90.2542 22.888ZM96.8309 19.256H98.2389V22.376H101.903V19.256H103.311V27H101.903V23.496H98.2389V27H96.8309V19.256ZM105.565 19.256H106.973V21.88C107.357 21.816 107.773 21.784 108.221 21.784C109.16 21.784 109.955 21.9973 110.605 22.424C111.256 22.8507 111.581 23.5067 111.581 24.392C111.581 25.128 111.309 25.7253 110.765 26.184C110.061 26.7813 109.021 27.08 107.645 27.08C106.952 27.08 106.259 27.0427 105.565 26.968V19.256ZM106.957 22.888V26.008C107.213 26.0507 107.539 26.072 107.933 26.072C108.552 26.072 109.08 25.9387 109.517 25.672C109.955 25.4053 110.173 24.9893 110.173 24.424C110.173 23.848 109.96 23.432 109.533 23.176C109.117 22.92 108.605 22.792 107.997 22.792C107.592 22.792 107.245 22.824 106.957 22.888ZM112.557 19.256H113.949V27H112.557V19.256ZM116.206 19.256H117.55V22.52C117.55 23.48 117.518 24.5147 117.454 25.624L117.502 25.64C118.089 24.4773 118.51 23.6827 118.766 23.256L121.182 19.256H122.83V27H121.486V23.72C121.486 22.856 121.518 21.7947 121.582 20.536H121.55C121.006 21.6027 120.574 22.408 120.254 22.952C119.977 23.4107 119.545 24.1307 118.958 25.112C118.382 26.0827 118.009 26.712 117.838 27H116.206V19.256ZM117.438 16.104H118.462C118.483 16.4667 118.579 16.76 118.75 16.984C118.931 17.208 119.177 17.32 119.486 17.32C120.115 17.32 120.478 16.9147 120.574 16.104H121.582C121.539 16.744 121.331 17.2347 120.958 17.576C120.585 17.9173 120.083 18.088 119.454 18.088C118.793 18.088 118.297 17.9067 117.966 17.544C117.646 17.1813 117.47 16.7013 117.438 16.104ZM129.336 19.256H134.504V25.944L135.304 25.96L135.224 29.448H134.12L134.056 27H128.696L128.616 29.448H127.528L127.464 25.976L128.12 25.944C128.451 25.4533 128.707 24.9253 128.888 24.36C129.187 23.4213 129.336 22.392 129.336 21.272V19.256ZM130.568 20.328V21.592C130.568 22.68 130.435 23.6453 130.168 24.488C130.019 25 129.816 25.48 129.56 25.928H133.128V20.328H130.568ZM136.94 19.256H138.284V22.52C138.284 23.48 138.252 24.5147 138.188 25.624L138.236 25.64C138.823 24.4773 139.244 23.6827 139.5 23.256L141.916 19.256H143.564V27H142.22V23.72C142.22 22.856 142.252 21.7947 142.316 20.536H142.284C141.74 21.6027 141.308 22.408 140.988 22.952C140.711 23.4107 140.279 24.1307 139.692 25.112C139.116 26.0827 138.743 26.712 138.572 27H136.94V19.256ZM146.342 19.256H151.734V27H150.326V20.36H147.67V22.344C147.67 23.5387 147.585 24.4773 147.414 25.16C147.244 25.832 146.924 26.3227 146.454 26.632C146.049 26.952 145.537 27.112 144.918 27.112L144.774 26.008C145.094 25.9547 145.35 25.848 145.542 25.688C145.873 25.4427 146.086 25.0693 146.182 24.568C146.289 24.0667 146.342 23.3253 146.342 22.344V19.256ZM160.244 23.384H154.804C154.814 24.2907 155.065 24.968 155.556 25.416C156.057 25.8533 156.692 26.072 157.46 26.072C158.281 26.072 158.996 25.9387 159.604 25.672L159.86 26.68C159.124 27.0107 158.26 27.176 157.268 27.176C156.094 27.176 155.166 26.8187 154.484 26.104C153.801 25.3893 153.46 24.44 153.46 23.256C153.46 22.0613 153.79 21.0693 154.452 20.28C155.113 19.4907 155.993 19.096 157.092 19.096C157.689 19.096 158.206 19.2187 158.644 19.464C159.092 19.6987 159.428 20.008 159.652 20.392C159.876 20.776 160.036 21.1653 160.132 21.56C160.238 21.944 160.292 22.3333 160.292 22.728C160.292 23.0053 160.276 23.224 160.244 23.384ZM154.82 22.376H158.932C158.942 21.8107 158.793 21.2933 158.484 20.824C158.185 20.344 157.684 20.104 156.98 20.104C156.329 20.104 155.822 20.3387 155.46 20.808C155.097 21.2667 154.884 21.7893 154.82 22.376ZM162.035 30.168V21.784C162.035 21.08 162.014 20.2373 161.971 19.256H163.219L163.299 20.584H163.331C163.918 19.592 164.835 19.096 166.083 19.096C167.033 19.096 167.817 19.4587 168.435 20.184C169.065 20.9093 169.379 21.8533 169.379 23.016C169.379 24.3387 169.033 25.3627 168.339 26.088C167.657 26.8133 166.825 27.176 165.843 27.176C165.331 27.176 164.862 27.0693 164.435 26.856C164.019 26.6427 163.694 26.344 163.459 25.96H163.427V30.168H162.035ZM163.427 22.504V23.848C163.427 24.072 163.449 24.264 163.491 24.424C163.619 24.9147 163.875 25.3147 164.259 25.624C164.654 25.9227 165.102 26.072 165.603 26.072C166.339 26.072 166.915 25.8 167.331 25.256C167.747 24.712 167.955 23.9867 167.955 23.08C167.955 22.2693 167.747 21.592 167.331 21.048C166.926 20.4933 166.366 20.216 165.651 20.216C165.161 20.216 164.713 20.376 164.307 20.696C163.913 21.0053 163.651 21.4213 163.523 21.944C163.459 22.1787 163.427 22.3653 163.427 22.504Z" fill="white"/>
<path fill-rule="evenodd" clip-rule="evenodd" d="M194.889 35.7502C192.386 35.7509 189.94 35.0038 187.859 33.6033C185.777 32.2027 184.155 30.2117 183.197 27.8819C182.239 25.5522 181.987 22.9885 182.475 20.5149C182.963 18.0414 184.168 15.7691 185.937 13.9856C187.706 12.2021 189.961 10.9874 192.415 10.4951C194.87 10.0028 197.414 10.2551 199.726 11.22C202.038 12.1849 204.015 13.8191 205.405 15.916C206.796 18.0128 207.538 20.4781 207.538 23C207.531 26.3787 206.196 29.6171 203.826 32.0065C201.455 34.396 198.242 35.7421 194.889 35.7502ZM194.889 8C191.945 7.99924 189.067 8.87833 186.618 10.5261C184.17 12.1738 182.261 14.5163 181.134 17.2571C180.007 19.9979 179.712 23.014 180.286 25.924C180.859 28.834 182.277 31.5071 184.358 33.6052C186.44 35.7034 189.092 37.1324 191.98 37.7115C194.867 38.2906 197.861 37.9938 200.581 36.8586C203.301 35.7234 205.626 33.8008 207.262 31.3339C208.897 28.8671 209.77 25.9669 209.77 23C209.763 19.0246 208.193 15.214 205.404 12.4026C202.615 9.5912 198.834 8.00812 194.889 8Z" fill="white"/>
<path fill-rule="evenodd" clip-rule="evenodd" d="M195.948 12.5764V14.688C197.503 14.8856 198.972 15.521 200.185 16.5213C201.398 17.5216 202.306 18.8462 202.806 20.3432L200.436 22.9962L202.791 25.6606C202.29 27.1578 201.381 28.4829 200.169 29.4843C198.956 30.4857 197.488 31.1231 195.933 31.3235V33.4274C198.137 33.2006 200.213 32.2712 201.857 30.7743C203.502 29.2774 204.629 27.291 205.077 25.1039L203.217 23.0077L205.077 20.9191C204.631 18.7306 203.504 16.7425 201.859 15.2441C200.215 13.7457 198.139 12.8152 195.933 12.5879" fill="white"/>
<path fill-rule="evenodd" clip-rule="evenodd" d="M191.814 26.6012L188.683 24.0865V14.6304C187.898 15.2275 187.2 15.9332 186.61 16.7266V25.0962L191.814 29.2849V32.9898C192.49 33.2044 193.186 33.3485 193.891 33.4198V12.5764C193.186 12.6426 192.491 12.7816 191.814 12.991V26.6012Z" fill="white"/>
<path fill-rule="evenodd" clip-rule="evenodd" d="M234.142 22.8925L235.118 19.8211C235.148 19.7213 235.228 19.5331 235.281 19.5331C235.335 19.5331 235.415 19.7251 235.445 19.8211C235.773 20.7924 236.097 21.829 236.421 22.8925H234.142ZM254.041 23.9214C253.861 23.5988 253.594 23.3348 253.27 23.1606C252.945 22.9865 252.579 22.9094 252.213 22.9386V22.8618C252.644 22.7829 253.042 22.5757 253.356 22.2667C254.011 21.6063 254.068 20.8039 254.068 19.9631C254.068 19.0187 254.015 17.936 253.337 17.1874C252.46 16.2237 251.104 16.2429 249.908 16.2429H241.343L242.676 19.5946H248.467C248.851 19.5566 249.238 19.5891 249.61 19.6906C249.927 19.8364 249.957 20.1129 249.957 20.4239C249.97 20.5612 249.956 20.6998 249.915 20.8316C249.875 20.9634 249.809 21.0858 249.721 21.1917C249.447 21.4605 248.879 21.4413 248.403 21.4413H243.442L244.585 24.3706H248.528C249.29 24.3706 249.626 24.3706 249.847 24.5434C249.967 24.6382 250.062 24.7621 250.123 24.9037C250.184 25.0453 250.208 25.2 250.193 25.3535C250.213 25.5192 250.188 25.6873 250.121 25.84C250.054 25.9927 249.947 26.1244 249.812 26.2211C249.614 26.344 249.317 26.3747 248.513 26.3747H241.655L238.227 17.7249C237.621 16.2237 236.523 16.0893 235.301 16.0893C233.323 16.0893 232.775 16.7266 232.375 17.7249L227.627 29.7494H231.986L233.232 25.8257H237.305C237.72 27.1886 238.146 28.5132 238.588 29.7494H249.828C250.78 29.7494 252.369 29.8646 253.321 29.1505C254.274 28.4364 254.419 27.0696 254.419 26.106C254.481 25.3569 254.349 24.6043 254.038 23.9214H254.041Z" fill="white"/>
<path fill-rule="evenodd" clip-rule="evenodd" d="M223.315 16.2659V22.8887H220.065C219.478 22.8887 219.044 22.8656 218.811 22.6583C218.51 22.3857 218.526 21.8098 218.526 21.4451V16.2659H214.236V22.1362C214.207 22.9359 214.384 23.7295 214.75 24.4397C215.013 24.8794 215.388 25.241 215.835 25.4878C216.282 25.7346 216.785 25.8578 217.295 25.8449H223.318V29.7494L227.627 29.7494V16.2659H223.315Z" fill="white"/>
<path fill-rule="evenodd" clip-rule="evenodd" d="M256.152 16.7574H255.539V16.3312H257.287V16.7574H256.666V18.5772H256.152V16.7574Z" fill="white"/>
<path fill-rule="evenodd" clip-rule="evenodd" d="M259.467 17.7172C259.467 17.4484 259.448 17.1221 259.448 16.7919C259.371 17.0799 259.28 17.3985 259.192 17.6634L258.914 18.5426H258.514L258.27 17.6711C258.198 17.4062 258.122 17.0914 258.065 16.7919C258.065 17.0952 258.042 17.4446 258.026 17.7249L257.981 18.581H257.505L257.649 16.3312H258.335L258.556 17.0991C258.628 17.3601 258.697 17.6404 258.747 17.9015C258.808 17.6404 258.884 17.3448 258.964 17.0952L259.204 16.3466H259.878L260 18.5964H259.501L259.467 17.7172Z" fill="white"/>
</svg>
